<svg width="48" height="48" viewBox="0 0 48 48" fill="none" xmlns="http://www.w3.org/2000/svg">
<path d="M47 8.37294V39.8272C47 40.0153 47 40.1094 46.9435 40.1367C46.887 40.164 46.8124 40.1048 46.6631 39.9863L46.6631 39.9863C41.1614 35.6204 29.8527 36.1157 24.3452 41.0048C24.1937 41.1392 24.118 41.2065 24.059 41.1799C24 41.1534 24 41.0533 24 40.853V9.66124C24 9.61927 24 9.59828 24.0081 9.57941C24.0162 9.56055 24.0311 9.54637 24.0609 9.51801C29.5434 4.29783 41.4503 3.25357 46.9356 8.22649C46.9671 8.25504 46.9828 8.26932 46.9914 8.28867C47 8.30802 47 8.32966 47 8.37294Z" fill="black" stroke="black"/>
<path d="M31.9648 14.7459L35.445 20.4348H35.5586L39.0387 14.7459H41.5813L37.0501 22.0186L41.6097 29.2913H39.0529L35.5586 23.6805H35.445L31.9506 29.2913H29.3938L34.0316 22.0186L29.4222 14.7459H31.9648Z" fill="#F5F5F5"/>
<path d="M1 8.37294V39.8272C1 40.0153 1 40.1094 1.0565 40.1367C1.11301 40.164 1.18763 40.1048 1.33686 39.9863L1.33687 39.9863C6.83857 35.6204 18.1473 36.1157 23.6548 41.0048C23.8063 41.1392 23.882 41.2065 23.941 41.1799C24 41.1534 24 41.0533 24 40.853V9.66124C24 9.61927 24 9.59828 23.9919 9.57941C23.9838 9.56055 23.9689 9.54637 23.9391 9.51801C18.4566 4.29783 6.5497 3.25357 1.06439 8.22649C1.0329 8.25504 1.01715 8.26932 1.00858 8.28867C1 8.30802 1 8.32966 1 8.37294Z" fill="#F5F5F5" stroke="black"/>
<path d="M5.1234 14.7459H7.78675L12.4174 26.0527H12.5879L17.2186 14.7459H19.8819V29.2913H17.7939V18.7658H17.6589L13.3691 29.27H11.6362L7.34641 18.7587H7.21147V29.2913H5.1234V14.7459Z" fill="black"/>
</svg>
