<?xml version="1.0" standalone="no"?>
<!DOCTYPE svg PUBLIC "-//W3C//DTD SVG 20010904//EN"
 "http://www.w3.org/TR/2001/REC-SVG-20010904/DTD/svg10.dtd">
<svg version="1.0" xmlns="http://www.w3.org/2000/svg"
 width="512.000000pt" height="512.000000pt" viewBox="0 0 512.000000 512.000000"
 preserveAspectRatio="xMidYMid meet">
<metadata>
Created by potrace 1.14, written by Peter Selinger 2001-2017
</metadata>
<g transform="translate(0.000000,512.000000) scale(0.100000,-0.100000)"
fill="#000000" stroke="none">
<path d="M2505 5011 c-2 -4 -18 -8 -37 -9 -18 -2 -43 -10 -56 -18 -14 -9 -21
-11 -18 -5 8 12 -74 -41 -109 -71 -23 -19 -256 -201 -305 -238 -19 -14 -47
-36 -64 -50 -17 -14 -37 -29 -44 -35 -7 -5 -19 -16 -27 -22 -7 -7 -18 -13 -24
-13 -6 0 -11 -4 -11 -8 0 -5 -20 -23 -45 -41 -24 -17 -51 -39 -60 -47 -8 -9
-15 -12 -15 -7 0 4 -7 -3 -16 -15 -8 -12 -19 -22 -24 -22 -5 0 -23 -12 -39
-27 -17 -16 -48 -41 -71 -58 -22 -16 -52 -39 -65 -50 -13 -11 -33 -28 -44 -37
-12 -10 -25 -18 -30 -18 -5 0 -11 -3 -13 -8 -1 -4 -23 -23 -48 -42 -25 -19
-50 -39 -56 -45 -7 -5 -24 -19 -40 -30 -32 -23 -68 -52 -95 -77 -10 -10 -19
-16 -19 -13 0 5 -39 -26 -72 -57 -10 -10 -20 -18 -23 -18 -3 0 -13 -7 -22 -15
-10 -8 -58 -46 -108 -85 -113 -87 -144 -112 -159 -125 -6 -5 -49 -39 -96 -75
-47 -36 -92 -70 -100 -77 -36 -29 -140 -110 -170 -133 -50 -38 -111 -87 -148
-120 -19 -17 -39 -30 -45 -30 -6 0 -7 -3 -4 -6 4 -4 -2 -19 -13 -34 -20 -28
-39 -95 -34 -120 12 -61 18 -77 37 -104 29 -42 50 -62 132 -126 95 -73 94 -73
116 -92 10 -10 23 -18 27 -18 4 0 14 -9 22 -20 8 -11 19 -20 25 -20 5 0 24
-14 42 -30 18 -17 36 -30 42 -30 5 0 11 -4 13 -8 2 -5 28 -27 58 -51 86 -66
119 -93 180 -141 31 -25 72 -56 90 -70 18 -14 38 -29 44 -35 6 -5 32 -26 58
-45 51 -37 57 -52 33 -77 -8 -8 -13 -19 -10 -24 4 -5 1 -9 -5 -9 -7 0 -10 -7
-6 -15 3 -8 0 -15 -6 -15 -6 0 -8 -3 -5 -7 4 -3 3 -11 -2 -17 -15 -19 -24 -86
-25 -206 -2 -114 -8 -146 -27 -135 -5 4 -9 1 -9 -4 0 -6 -7 -11 -16 -11 -8 0
-22 -6 -29 -13 -8 -6 -32 -25 -54 -42 -36 -28 -110 -127 -112 -150 -1 -5 -5
-18 -11 -28 -13 -25 -20 -63 -22 -112 0 -22 -5 -43 -11 -47 -7 -5 -7 -8 0 -8
6 0 11 -12 12 -28 4 -75 43 -165 101 -232 l35 -40 2 -438 c1 -424 2 -439 23
-493 45 -113 125 -163 263 -164 72 0 93 4 133 25 47 24 116 99 116 126 0 8 4
14 10 14 5 0 9 3 8 8 -1 4 2 27 6 51 10 52 12 754 2 769 -3 6 -2 13 3 17 6 3
30 -12 53 -34 105 -98 138 -128 183 -166 27 -22 60 -50 73 -63 14 -12 29 -22
34 -22 5 0 6 -4 3 -10 -3 -5 -1 -10 6 -10 6 0 26 -12 44 -27 18 -16 47 -39 65
-53 18 -14 49 -38 69 -55 21 -16 50 -39 65 -50 29 -21 94 -69 111 -83 6 -4 48
-34 95 -67 47 -32 87 -62 90 -65 3 -4 20 -15 38 -25 17 -11 32 -23 32 -27 0
-4 4 -8 10 -8 8 0 96 -56 110 -70 3 -3 17 -11 33 -19 23 -12 31 -12 55 0 15 8
36 22 46 31 11 10 26 18 33 18 7 0 13 5 13 10 0 6 5 10 11 10 6 0 16 6 23 13
8 6 22 18 32 24 35 23 319 226 324 232 3 3 23 18 45 33 22 15 52 38 67 50 14
13 41 34 58 48 18 14 37 30 44 35 6 6 31 26 56 45 25 19 54 43 65 55 11 11 43
38 70 60 28 22 70 59 94 83 24 23 46 42 48 42 6 0 124 120 161 163 17 22 32
36 32 32 0 -4 10 5 22 21 12 16 25 31 28 34 5 5 73 89 95 118 6 7 18 22 27 33
10 10 15 19 12 19 -3 0 4 12 15 26 12 15 21 33 21 40 0 8 4 14 8 14 10 0 48
80 45 92 -2 5 2 8 7 8 5 0 9 3 9 8 -1 4 0 9 1 12 3 8 9 33 15 65 3 17 8 35 10
42 2 7 0 15 -5 18 -6 4 -7 14 -2 23 6 15 8 47 2 62 -3 9 -7 34 -14 80 -9 69
-70 276 -86 290 -3 3 -11 22 -19 44 -13 38 -13 39 20 67 19 16 42 32 52 35 9
3 15 10 12 15 -4 5 -1 9 5 9 12 0 112 79 118 93 2 4 10 7 17 7 7 0 15 3 17 8
2 4 35 32 73 62 39 30 75 58 80 62 6 4 38 30 71 58 34 27 65 50 68 50 3 0 15
8 25 18 22 19 31 26 86 67 21 17 46 37 55 45 9 8 28 24 44 35 15 11 39 30 52
43 14 12 28 22 32 22 10 0 92 79 119 114 13 15 20 32 17 37 -3 5 -1 9 4 9 5 0
9 6 10 13 18 126 -13 180 -172 305 -125 98 -210 165 -243 193 -13 10 -23 16
-23 12 0 -3 -14 8 -30 26 -17 17 -35 31 -40 31 -6 0 -10 5 -10 10 0 6 -5 10
-11 10 -7 0 -20 10 -30 22 -11 11 -19 18 -19 14 0 -4 -12 5 -27 19 -16 14 -71
58 -123 98 -52 39 -100 76 -107 82 -6 5 -23 19 -38 30 -14 11 -34 27 -43 35
-10 8 -33 26 -52 40 -19 13 -43 33 -52 44 -10 10 -18 16 -18 12 0 -4 -6 -1
-13 6 -8 7 -28 24 -46 38 -18 14 -38 30 -44 35 -7 6 -52 42 -102 80 -49 38
-91 73 -93 77 -2 5 -8 8 -13 8 -9 0 -34 20 -87 68 -14 12 -28 22 -31 22 -3 0
-17 10 -31 23 -14 12 -43 35 -65 52 -22 16 -50 39 -63 51 -13 11 -41 32 -62
45 -22 13 -40 30 -40 37 0 7 -4 10 -10 7 -5 -3 -10 -1 -10 4 0 6 -6 11 -14 11
-8 0 -16 3 -18 8 -3 7 -33 32 -99 83 -19 15 -70 55 -115 90 -45 35 -96 75
-114 89 -18 14 -44 35 -58 47 -31 26 -98 61 -132 69 -69 15 -169 24 -175 15z"/>
</g>
</svg>
