<svg width="48" height="48" viewBox="0 0 48 48" fill="none" xmlns="http://www.w3.org/2000/svg">
<path d="M48 7C48 6.5 48 6 47.5 5.5C47 5 46.5 5 46 5H33C29 5 25 7 24 8L23 10V42C23 42 23.5 43 24 43C24.5 43 25 43 25.5 42.5C26 42 29 39 33 39H46C46.5 39 47 39 47.5 38.5C48 38 48 37.5 48 37V7ZM25 40V10C26 9 29 7 33 7H46V37H33C29 37 26 39 25 40Z" fill="black"/>
<path d="M48 7C48 6.5 48 6 47.5 5.5C47 5 46.5 5 46 5H33C29 5 25 7 24 8L23 10V42C23 42 23.5 43 24 43C24.5 43 25 43 25.5 42.5C26 42 29 39 33 39H46C46.5 39 47 39 47.5 38.5C48 38 48 37.5 48 37V7ZM25 40V10C26 9 29 7 33 7H46V37H33C29 37 26 39 25 40Z" fill="black"/>
<path d="M48 7C48 6.5 48 6 47.5 5.5C47 5 46.5 5 46 5H33C29 5 25 7 24 8L23 10V42C23 42 23.5 43 24 43C24.5 43 25 43 25.5 42.5C26 42 29 39 33 39H46C46.5 39 47 39 47.5 38.5C48 38 48 37.5 48 37V7ZM25 40V10C26 9 29 7 33 7H46V37H33C29 37 26 39 25 40Z" fill="black"/>
<path d="M48 7C48 6.5 48 6 47.5 5.5C47 5 46.5 5 46 5H33C29 5 25 7 24 8L23 10V42C23 42 23.5 43 24 43C24.5 43 25 43 25.5 42.5C26 42 29 39 33 39H46C46.5 39 47 39 47.5 38.5C48 38 48 37.5 48 37V7ZM25 40V10C26 9 29 7 33 7H46V37H33C29 37 26 39 25 40Z" fill="black"/>
<path d="M48 7C48 6.5 48 6 47.5 5.5C47 5 46.5 5 46 5H33C29 5 25 7 24 8L23 10V42C23 42 23.5 43 24 43C24.5 43 25 43 25.5 42.5C26 42 29 39 33 39H46C46.5 39 47 39 47.5 38.5C48 38 48 37.5 48 37V7ZM25 40V10C26 9 29 7 33 7H46V37H33C29 37 26 39 25 40Z" fill="black"/>
<path d="M48 7C48 6.5 48 6 47.5 5.5C47 5 46.5 5 46 5H33C29 5 25 7 24 8L23 10V42C23 42 23.5 43 24 43C24.5 43 25 43 25.5 42.5C26 42 29 39 33 39H46C46.5 39 47 39 47.5 38.5C48 38 48 37.5 48 37V7ZM25 40V10C26 9 29 7 33 7H46V37H33C29 37 26 39 25 40Z" fill="black"/>
<path d="M48 7C48 6.5 48 6 47.5 5.5C47 5 46.5 5 46 5H33C29 5 25 7 24 8L23 10V42C23 42 23.5 43 24 43C24.5 43 25 43 25.5 42.5C26 42 29 39 33 39H46C46.5 39 47 39 47.5 38.5C48 38 48 37.5 48 37V7ZM25 40V10C26 9 29 7 33 7H46V37H33C29 37 26 39 25 40Z" fill="black"/>
<path d="M48 7C48 6.5 48 6 47.5 5.5C47 5 46.5 5 46 5H33C29 5 25 7 24 8L23 10V42C23 42 23.5 43 24 43C24.5 43 25 43 25.5 42.5C26 42 29 39 33 39H46C46.5 39 47 39 47.5 38.5C48 38 48 37.5 48 37V7ZM25 40V10C26 9 29 7 33 7H46V37H33C29 37 26 39 25 40Z" fill="black"/>
<path d="M48 7C48 6.5 48 6 47.5 5.5C47 5 46.5 5 46 5H33C29 5 25 7 24 8L23 10V42C23 42 23.5 43 24 43C24.5 43 25 43 25.5 42.5C26 42 29 39 33 39H46C46.5 39 47 39 47.5 38.5C48 38 48 37.5 48 37V7ZM25 40V10C26 9 29 7 33 7H46V37H33C29 37 26 39 25 40Z" fill="black"/>
<path d="M48 7C48 6.5 48 6 47.5 5.5C47 5 46.5 5 46 5H33C29 5 25 7 24 8L23 10V42C23 42 23.5 43 24 43C24.5 43 25 43 25.5 42.5C26 42 29 39 33 39H46C46.5 39 47 39 47.5 38.5C48 38 48 37.5 48 37V7ZM25 40V10C26 9 29 7 33 7H46V37H33C29 37 26 39 25 40Z" fill="black"/>
<path d="M48 7C48 6.5 48 6 47.5 5.5C47 5 46.5 5 46 5H33C29 5 25 7 24 8L23 10V42C23 42 23.5 43 24 43C24.5 43 25 43 25.5 42.5C26 42 29 39 33 39H46C46.5 39 47 39 47.5 38.5C48 38 48 37.5 48 37V7ZM25 40V10C26 9 29 7 33 7H46V37H33C29 37 26 39 25 40Z" fill="black"/>
<path d="M48 7C48 6.5 48 6 47.5 5.5C47 5 46.5 5 46 5H33C29 5 25 7 24 8L23 10V42C23 42 23.5 43 24 43C24.5 43 25 43 25.5 42.5C26 42 29 39 33 39H46C46.5 39 47 39 47.5 38.5C48 38 48 37.5 48 37V7ZM25 40V10C26 9 29 7 33 7H46V37H33C29 37 26 39 25 40Z" fill="black"/>
<path d="M48 7C48 6.5 48 6 47.5 5.5C47 5 46.5 5 46 5H33C29 5 25 7 24 8L23 10V42C23 42 23.5 43 24 43C24.5 43 25 43 25.5 42.5C26 42 29 39 33 39H46C46.5 39 47 39 47.5 38.5C48 38 48 37.5 48 37V7ZM25 40V10C26 9 29 7 33 7H46V37H33C29 37 26 39 25 40Z" fill="black"/>
<path d="M48 7C48 6.5 48 6 47.5 5.5C47 5 46.5 5 46 5H33C29 5 25 7 24 8L23 10V42C23 42 23.5 43 24 43C24.5 43 25 43 25.5 42.5C26 42 29 39 33 39H46C46.5 39 47 39 47.5 38.5C48 38 48 37.5 48 37V7ZM25 40V10C26 9 29 7 33 7H46V37H33C29 37 26 39 25 40Z" fill="black"/>
<path d="M48 7C48 6.5 48 6 47.5 5.5C47 5 46.5 5 46 5H33C29 5 25 7 24 8L23 10V42C23 42 23.5 43 24 43C24.5 43 25 43 25.5 42.5C26 42 29 39 33 39H46C46.5 39 47 39 47.5 38.5C48 38 48 37.5 48 37V7ZM25 40V10C26 9 29 7 33 7H46V37H33C29 37 26 39 25 40Z" fill="black"/>
<path d="M48 7C48 6.5 48 6 47.5 5.5C47 5 46.5 5 46 5H33C29 5 25 7 24 8L23 10V42C23 42 23.5 43 24 43C24.5 43 25 43 25.5 42.5C26 42 29 39 33 39H46C46.5 39 47 39 47.5 38.5C48 38 48 37.5 48 37V7ZM25 40V10C26 9 29 7 33 7H46V37H33C29 37 26 39 25 40Z" fill="black"/>
<path d="M25 40V10C26 9 29 7 33 7H46V37H33C29 37 26 39 25 40Z" fill="black"/>
<path d="M25 40V10C26 9 29 7 33 7H46V37H33C29 37 26 39 25 40Z" fill="black"/>
<path d="M25 40V10C26 9 29 7 33 7H46V37H33C29 37 26 39 25 40Z" fill="black"/>
<path d="M25 40V10C26 9 29 7 33 7H46V37H33C29 37 26 39 25 40Z" fill="black"/>
<path d="M25 40V10C26 9 29 7 33 7H46V37H33C29 37 26 39 25 40Z" fill="black"/>
<path d="M25 40V10C26 9 29 7 33 7H46V37H33C29 37 26 39 25 40Z" fill="black"/>
<path d="M25 40V10C26 9 29 7 33 7H46V37H33C29 37 26 39 25 40Z" fill="black"/>
<path d="M25 40V10C26 9 29 7 33 7H46V37H33C29 37 26 39 25 40Z" fill="black"/>
<path d="M25 40V10C26 9 29 7 33 7H46V37H33C29 37 26 39 25 40Z" fill="black"/>
<path d="M25 40V10C26 9 29 7 33 7H46V37H33C29 37 26 39 25 40Z" fill="black"/>
<path d="M25 40V10C26 9 29 7 33 7H46V37H33C29 37 26 39 25 40Z" fill="black"/>
<path d="M25 40V10C26 9 29 7 33 7H46V37H33C29 37 26 39 25 40Z" fill="black"/>
<path d="M25 40V10C26 9 29 7 33 7H46V37H33C29 37 26 39 25 40Z" fill="black"/>
<path d="M25 40V10C26 9 29 7 33 7H46V37H33C29 37 26 39 25 40Z" fill="black"/>
<path d="M25 40V10C26 9 29 7 33 7H46V37H33C29 37 26 39 25 40Z" fill="black"/>
<path d="M25 40V10C26 9 29 7 33 7H46V37H33C29 37 26 39 25 40Z" fill="black"/>
<path d="M38.2237 14.4545L35.5675 19.0497H35.4538L32.7692 14.4545H28.8345L33.2237 21.7273L28.6925 29H32.7266L35.4538 24.3551H35.5675L38.2947 29H42.3004L37.7905 21.7273L42.1868 14.4545H38.2237Z" fill="#F5F5F5"/>
<path d="M0 7C0 6.5 0 6 0.5 5.5C1 5 1.5 5 2 5H15C19 5 23 7 24 8L25 10V42C25 42 24.5 43 24 43C23.5 43 23 43 22.5 42.5C22 42 19 39 15 39H2C1.5 39 1 39 0.5 38.5C0 38 0 37.5 0 37V7ZM23 40V10C22 9 19 7 15 7H2V37H15C19 37 22 39 23 40Z" fill="black"/>
<path d="M0 7C0 6.5 0 6 0.5 5.5C1 5 1.5 5 2 5H15C19 5 23 7 24 8L25 10V42C25 42 24.5 43 24 43C23.5 43 23 43 22.5 42.5C22 42 19 39 15 39H2C1.5 39 1 39 0.5 38.5C0 38 0 37.5 0 37V7ZM23 40V10C22 9 19 7 15 7H2V37H15C19 37 22 39 23 40Z" fill="black"/>
<path d="M0 7C0 6.5 0 6 0.5 5.5C1 5 1.5 5 2 5H15C19 5 23 7 24 8L25 10V42C25 42 24.5 43 24 43C23.5 43 23 43 22.5 42.5C22 42 19 39 15 39H2C1.5 39 1 39 0.5 38.5C0 38 0 37.5 0 37V7ZM23 40V10C22 9 19 7 15 7H2V37H15C19 37 22 39 23 40Z" fill="black"/>
<path d="M0 7C0 6.5 0 6 0.5 5.5C1 5 1.5 5 2 5H15C19 5 23 7 24 8L25 10V42C25 42 24.5 43 24 43C23.5 43 23 43 22.5 42.5C22 42 19 39 15 39H2C1.5 39 1 39 0.5 38.5C0 38 0 37.5 0 37V7ZM23 40V10C22 9 19 7 15 7H2V37H15C19 37 22 39 23 40Z" fill="black"/>
<path d="M0 7C0 6.5 0 6 0.5 5.5C1 5 1.5 5 2 5H15C19 5 23 7 24 8L25 10V42C25 42 24.5 43 24 43C23.5 43 23 43 22.5 42.5C22 42 19 39 15 39H2C1.5 39 1 39 0.5 38.5C0 38 0 37.5 0 37V7ZM23 40V10C22 9 19 7 15 7H2V37H15C19 37 22 39 23 40Z" fill="black"/>
<path d="M0 7C0 6.5 0 6 0.5 5.5C1 5 1.5 5 2 5H15C19 5 23 7 24 8L25 10V42C25 42 24.5 43 24 43C23.5 43 23 43 22.5 42.5C22 42 19 39 15 39H2C1.5 39 1 39 0.5 38.5C0 38 0 37.5 0 37V7ZM23 40V10C22 9 19 7 15 7H2V37H15C19 37 22 39 23 40Z" fill="black"/>
<path d="M0 7C0 6.5 0 6 0.5 5.5C1 5 1.5 5 2 5H15C19 5 23 7 24 8L25 10V42C25 42 24.5 43 24 43C23.5 43 23 43 22.5 42.5C22 42 19 39 15 39H2C1.5 39 1 39 0.5 38.5C0 38 0 37.5 0 37V7ZM23 40V10C22 9 19 7 15 7H2V37H15C19 37 22 39 23 40Z" fill="black"/>
<path d="M0 7C0 6.5 0 6 0.5 5.5C1 5 1.5 5 2 5H15C19 5 23 7 24 8L25 10V42C25 42 24.5 43 24 43C23.5 43 23 43 22.5 42.5C22 42 19 39 15 39H2C1.5 39 1 39 0.5 38.5C0 38 0 37.5 0 37V7ZM23 40V10C22 9 19 7 15 7H2V37H15C19 37 22 39 23 40Z" fill="black"/>
<path d="M0 7C0 6.5 0 6 0.5 5.5C1 5 1.5 5 2 5H15C19 5 23 7 24 8L25 10V42C25 42 24.5 43 24 43C23.5 43 23 43 22.5 42.5C22 42 19 39 15 39H2C1.5 39 1 39 0.5 38.5C0 38 0 37.5 0 37V7ZM23 40V10C22 9 19 7 15 7H2V37H15C19 37 22 39 23 40Z" fill="black"/>
<path d="M0 7C0 6.5 0 6 0.5 5.5C1 5 1.5 5 2 5H15C19 5 23 7 24 8L25 10V42C25 42 24.5 43 24 43C23.5 43 23 43 22.5 42.5C22 42 19 39 15 39H2C1.5 39 1 39 0.5 38.5C0 38 0 37.5 0 37V7ZM23 40V10C22 9 19 7 15 7H2V37H15C19 37 22 39 23 40Z" fill="black"/>
<path d="M0 7C0 6.5 0 6 0.5 5.5C1 5 1.5 5 2 5H15C19 5 23 7 24 8L25 10V42C25 42 24.5 43 24 43C23.5 43 23 43 22.5 42.5C22 42 19 39 15 39H2C1.5 39 1 39 0.5 38.5C0 38 0 37.5 0 37V7ZM23 40V10C22 9 19 7 15 7H2V37H15C19 37 22 39 23 40Z" fill="black"/>
<path d="M0 7C0 6.5 0 6 0.5 5.5C1 5 1.5 5 2 5H15C19 5 23 7 24 8L25 10V42C25 42 24.5 43 24 43C23.5 43 23 43 22.5 42.5C22 42 19 39 15 39H2C1.5 39 1 39 0.5 38.5C0 38 0 37.5 0 37V7ZM23 40V10C22 9 19 7 15 7H2V37H15C19 37 22 39 23 40Z" fill="black"/>
<path d="M0 7C0 6.5 0 6 0.5 5.5C1 5 1.5 5 2 5H15C19 5 23 7 24 8L25 10V42C25 42 24.5 43 24 43C23.5 43 23 43 22.5 42.5C22 42 19 39 15 39H2C1.5 39 1 39 0.5 38.5C0 38 0 37.5 0 37V7ZM23 40V10C22 9 19 7 15 7H2V37H15C19 37 22 39 23 40Z" fill="black"/>
<path d="M0 7C0 6.5 0 6 0.5 5.5C1 5 1.5 5 2 5H15C19 5 23 7 24 8L25 10V42C25 42 24.5 43 24 43C23.5 43 23 43 22.5 42.5C22 42 19 39 15 39H2C1.5 39 1 39 0.5 38.5C0 38 0 37.5 0 37V7ZM23 40V10C22 9 19 7 15 7H2V37H15C19 37 22 39 23 40Z" fill="black"/>
<path d="M0 7C0 6.5 0 6 0.5 5.5C1 5 1.5 5 2 5H15C19 5 23 7 24 8L25 10V42C25 42 24.5 43 24 43C23.5 43 23 43 22.5 42.5C22 42 19 39 15 39H2C1.5 39 1 39 0.5 38.5C0 38 0 37.5 0 37V7ZM23 40V10C22 9 19 7 15 7H2V37H15C19 37 22 39 23 40Z" fill="black"/>
<path d="M0 7C0 6.5 0 6 0.5 5.5C1 5 1.5 5 2 5H15C19 5 23 7 24 8L25 10V42C25 42 24.5 43 24 43C23.5 43 23 43 22.5 42.5C22 42 19 39 15 39H2C1.5 39 1 39 0.5 38.5C0 38 0 37.5 0 37V7ZM23 40V10C22 9 19 7 15 7H2V37H15C19 37 22 39 23 40Z" fill="black"/>
<path d="M23 40V10C22 9 19 7 15 7H2V37H15C19 37 22 39 23 40Z" fill="#F5F5F5"/>
<path d="M23 40V10C22 9 19 7 15 7H2V37H15C19 37 22 39 23 40Z" fill="#F5F5F5"/>
<path d="M23 40V10C22 9 19 7 15 7H2V37H15C19 37 22 39 23 40Z" fill="#F5F5F5"/>
<path d="M23 40V10C22 9 19 7 15 7H2V37H15C19 37 22 39 23 40Z" fill="#F5F5F5"/>
<path d="M23 40V10C22 9 19 7 15 7H2V37H15C19 37 22 39 23 40Z" fill="#F5F5F5"/>
<path d="M23 40V10C22 9 19 7 15 7H2V37H15C19 37 22 39 23 40Z" fill="#F5F5F5"/>
<path d="M23 40V10C22 9 19 7 15 7H2V37H15C19 37 22 39 23 40Z" fill="#F5F5F5"/>
<path d="M23 40V10C22 9 19 7 15 7H2V37H15C19 37 22 39 23 40Z" fill="#F5F5F5"/>
<path d="M23 40V10C22 9 19 7 15 7H2V37H15C19 37 22 39 23 40Z" fill="#F5F5F5"/>
<path d="M23 40V10C22 9 19 7 15 7H2V37H15C19 37 22 39 23 40Z" fill="#F5F5F5"/>
<path d="M23 40V10C22 9 19 7 15 7H2V37H15C19 37 22 39 23 40Z" fill="#F5F5F5"/>
<path d="M23 40V10C22 9 19 7 15 7H2V37H15C19 37 22 39 23 40Z" fill="#F5F5F5"/>
<path d="M23 40V10C22 9 19 7 15 7H2V37H15C19 37 22 39 23 40Z" fill="#F5F5F5"/>
<path d="M23 40V10C22 9 19 7 15 7H2V37H15C19 37 22 39 23 40Z" fill="#F5F5F5"/>
<path d="M23 40V10C22 9 19 7 15 7H2V37H15C19 37 22 39 23 40Z" fill="#F5F5F5"/>
<path d="M23 40V10C22 9 19 7 15 7H2V37H15C19 37 22 39 23 40Z" fill="#F5F5F5"/>
<path d="M4.37234 14.4545H8.72603L12.4192 23.4602H12.5897L16.2828 14.4545H20.6365V29H17.2132V20.0653H17.0925L13.5982 28.9077H11.4107L7.91637 20.0156H7.79563V29H4.37234V14.4545Z" fill="black"/>
</svg>
